<?xml version="1.0" standalone="no"?>
<!DOCTYPE svg PUBLIC "-//W3C//DTD SVG 20010904//EN"
 "http://www.w3.org/TR/2001/REC-SVG-20010904/DTD/svg10.dtd">
<svg version="1.0" xmlns="http://www.w3.org/2000/svg"
 width="2000.000000pt" height="2000.000000pt" viewBox="0 0 2000.000000 2000.000000"
 preserveAspectRatio="xMidYMid meet">
<metadata>
Created by potrace 1.16, written by Peter Selinger 2001-2019
</metadata>
<g transform="translate(0.000000,2000.000000) scale(0.100000,-0.100000)"
fill="#000000" stroke="none">
<path d="M9660 17324 c-304 -20 -399 -28 -550 -45 -1159 -130 -2297 -517
-3181 -1080 -1529 -975 -2550 -2549 -2938 -4529 -103 -530 -148 -1074 -138
-1700 8 -487 40 -834 118 -1260 143 -775 397 -1449 733 -1939 78 -114 106
-142 136 -134 40 11 35 47 -20 137 -318 527 -544 1287 -624 2101 -38 386 -46
1045 -17 1395 75 883 248 1632 553 2389 79 197 197 454 265 581 25 47 62 114
81 150 359 663 869 1283 1452 1767 823 682 1923 1154 3115 1337 480 73 693 90
1160 91 399 0 522 -7 874 -51 1897 -235 3541 -1218 4527 -2706 226 -341 448
-770 597 -1153 453 -1169 568 -2484 341 -3920 -85 -540 -168 -881 -318 -1308
-210 -595 -496 -1123 -875 -1612 -720 -929 -1775 -1625 -2991 -1975 -1174
-338 -2431 -341 -3460 -8 -929 300 -1565 836 -1774 1499 -108 341 -106 625 9
1339 201 1239 685 2811 1399 4542 311 756 635 1482 1011 2268 130 270 743
1493 770 1533 13 21 20 25 26 15 29 -53 234 -661 417 -1243 323 -1022 845
-3069 1227 -4805 172 -783 475 -2228 475 -2262 0 -7 -17 7 -38 32 -20 25 -107
124 -193 220 -1049 1180 -2268 1884 -3410 1970 -161 13 -259 6 -259 -16 0 -8
7 -14 14 -14 8 0 68 -7 133 -15 323 -43 692 -164 1048 -345 694 -352 1328
-905 1916 -1670 384 -500 804 -1213 1115 -1894 71 -156 117 -211 212 -258 61
-30 74 -33 162 -33 88 0 101 3 162 33 116 57 192 167 205 297 6 54 -39 304
-233 1300 -528 2710 -1120 5259 -1650 7105 -112 388 -358 1188 -419 1360 -13
36 -73 205 -134 375 -60 171 -149 405 -196 520 -48 116 -107 261 -132 324 -74
182 -128 245 -250 291 -81 30 -205 26 -283 -11 -88 -41 -134 -97 -266 -325
-907 -1560 -1855 -3492 -2496 -5089 -714 -1779 -1129 -3225 -1298 -4525 -72
-549 -40 -961 104 -1376 294 -843 1004 -1513 2033 -1918 507 -200 1052 -324
1683 -383 234 -21 878 -24 1110 -5 357 30 736 84 1021 146 1480 320 2774 1063
3711 2133 694 791 1179 1739 1453 2833 92 372 184 939 225 1395 120 1331 -41
2606 -470 3714 -430 1112 -1116 2069 -2010 2802 -883 724 -1965 1232 -3118
1464 -512 103 -907 144 -1442 149 -195 2 -380 2 -410 0z"/>
</g>
</svg>
